<!-- <svg xmlns="http://www.w3.org/2000/svg" width="24" height="24" viewBox="0 0 24 24">
    <path d="M3 17.25V21h3.75L17.81 9.94l-3.75-3.75L3 17.25zM20.71 7.04c.39-.39.39-1.02 0-1.41l-2.34-2.34c-.39-.39-1.02-.39-1.41 0l-1.83 1.83 3.75 3.75 1.83-1.83z"/>
    <path d="M0 0h24v24H0z" fill="none"/>
</svg> -->

<!-- 
<svg xmlns="http://www.w3.org/2000/svg" width="24" height="24" viewBox="0 0 24 24">
    <path d="M0 0h24v24H0z" fill="none"/>
    <path d="M7 14c-1.66 0-3 1.34-3 3 0 1.31-1.16 2-2 2 .92 1.22 2.49 2 4 2 2.21 0 4-1.79 4-4 0-1.66-1.34-3-3-3zm13.71-9.37l-1.34-1.34c-.39-.39-1.02-.39-1.41 0L9 12.25 11.75 15l8.96-8.96c.39-.39.39-1.02 0-1.41z"/>
</svg> -->

<svg xmlns="http://www.w3.org/2000/svg" height="24px" width="24px" viewBox="0 0 48 48" fill="#000000">
<path d="m48 0v48h-48v-48h48z" fill="none"/>
<path d="m6 34.49v7.51h7.48l15.08-15.07-7.5-7.5-15.06 15.06zm30.74-27.9l4.67 4.67c0.78 0.78 0.8 2.07 0.02 2.85l-10.74 10.72-7.52-7.52 5.07-5.07-1.46-1.46-11.32 11.32-2.81-2.8 12.75-12.73c0.78-0.78 2.07-0.76 2.85 0.02l2.83 2.83 2.83-2.83c0.77-0.78 2.05-0.78 2.83 0z"/>
</svg>