<!-- <svg xmlns="http://www.w3.org/2000/svg" xmlns:xlink="http://www.w3.org/1999/xlink" width="24" height="24" viewBox="0 0 24 24">
    <defs>
        <path id="a" d="M0 0h24v24H0V0z"/>
    </defs>
    <clipPath id="b">
        <use xlink:href="#a" overflow="visible"/>
    </clipPath>
    <path d="M9 11.24V7.5C9 6.12 10.12 5 11.5 5S14 6.12 14 7.5v3.74c1.21-.81 2-2.18 2-3.74C16 5.01 13.99 3 11.5 3S7 5.01 7 7.5c0 1.56.79 2.93 2 3.74zm9.84 4.63l-4.54-2.26c-.17-.07-.35-.11-.54-.11H13v-6c0-.83-.67-1.5-1.5-1.5S10 6.67 10 7.5v10.74l-3.43-.72c-.08-.01-.15-.03-.24-.03-.31 0-.59.13-.79.33l-.79.8 4.94 4.94c.27.27.65.44 1.06.44h6.79c.75 0 1.33-.55 1.44-1.28l.75-5.27c.01-.07.02-.14.02-.2 0-.62-.38-1.16-.91-1.38z" clip-path="url(#b)"/>
</svg> -->


<svg width="24px" xmlns="http://www.w3.org/2000/svg" fill="#000000" viewBox="0 0 24 24" height="24px" class="gb_zc"><path d="m0 0h24v24h-24z" fill="none"></path><path d="m20.78 13.16l-6.05-3.02c-0.23-0.09-0.47-0.14-0.73-0.14h-1v-2h1.75c1.66 0 3-1.34 3-3s-1.34-3-3-3c-0.75 0-1.14 0.22-1.75 0.75v-0.75c0-1.1-0.9-2-2-2s-2 0.9-2 2v0.75c-0.61-0.53-1-0.75-1.75-0.75-1.66 0-3 1.34-3 3s1.34 3 3 3h1.75v8.31l-4.57-0.95c-0.1-0.02-0.21-0.03-0.32-0.03-0.41 0-0.79 0.17-1.06 0.44l-1.05 1.06 6.59 6.59c0.36 0.36 0.86 0.58 1.41 0.58h9.06c1 0 1.77-0.74 1.92-1.7l1-7.03c0.01-0.09 0.02-0.18 0.02-0.27 0-0.83-0.5-1.54-1.22-1.84zm-11.53-6.16h-2c-1.1 0-2-0.9-2-2s0.9-2 2-2 2 0.9 2 2v2zm3.5-2c0-1.1 0.9-2 2-2s2 0.9 2 2-0.9 2-2 2h-2v-2z"></path></svg>